<?xml version="1.0" encoding="utf-8"?>
<!-- Generator: Adobe Illustrator 19.2.1, SVG Export Plug-In . SVG Version: 6.00 Build 0)  -->
<svg version="1.1" id="layer" xmlns="http://www.w3.org/2000/svg" xmlns:xlink="http://www.w3.org/1999/xlink" x="0px" y="0px"
	 viewBox="0 0 652 652" style="enable-background:new 0 0 652 652;" xml:space="preserve">
<style type="text/css">
	.st0{stroke:#000000;stroke-width:1.6745;}
</style>
<path class="st0" d="M145.6,304.1H90.8c-0.4,2.2-0.8,4.5-1,6.7h15.9c1,0,1.8,0.8,2,1.8c0.4,4.3,0.8,9,0.8,13.8
	c0,30.5-10.6,51.9-20,51.9c-9.6,0-20.2-21.4-20.2-51.9c0-30.9,10-65.7,48.9-44.4v-7.5c-8.8-4.3-18.6-6.7-28.6-6.7
	c-34.1,0-62,26.3-62,58.6c0,32.4,27.8,58.6,62,58.6c34.1,0,62-26.3,62-58.6C150.3,318.6,148.7,311,145.6,304.1z M77.1,276.6
	c-6.7,5.9-11,15.5-13.3,26.5c-0.2,0.6-0.6,1-1.2,1H40.5c-0.8,0-1.2-0.8-0.8-1.4c7.4-13,20.4-23.4,37-27.3
	C77.3,275.2,77.7,276,77.1,276.6z M37.4,310.8h23.5c0.8,0,1.4,0.6,1.2,1.4c-0.6,4.7-0.8,9.4-0.8,14.2c0,4.5,0.2,9,0.6,13.2
	c0,0.8-0.6,1.4-1.4,1.4H37c-0.8,0-1.6-0.6-2-1.4c-1.2-4.3-1.8-8.8-1.8-13.2c0-4.9,0.8-9.6,2.2-14.2
	C35.8,311.4,36.4,310.8,37.4,310.8z M40.3,347.9h21.9c0.6,0,1.2,0.4,1.2,1c2,10.6,5.3,19.7,9.6,26c0.4,0.4-0.2,1.2-0.8,1
	c-14.5-4.1-26.6-13.6-33.3-26C38.6,349.1,39.3,347.9,40.3,347.9z M103.5,375.1c4.3-6.3,7.8-15.5,9.8-26c0.2-0.6,0.6-1,1.2-1h21.9
	c1,0,1.6,1,1.2,2c-6.7,12.2-18.8,22-33.3,26C103.7,376.4,103.3,375.5,103.5,375.1z M139.9,341.2h-23.9c-0.8,0-1.4-0.6-1.4-1.4
	c0.4-4.3,0.6-8.8,0.6-13.2c0-4.9-0.2-9.6-0.8-14c0-0.8,0.6-1.4,1.4-1.4h23.7c0.8,0,1.6,0.6,1.8,1.4c1.4,4.5,2,9.4,2,14.2
	c0,4.7-0.6,9-1.8,13.2C141.5,340.5,140.7,341.2,139.9,341.2z"/>
<path d="M195.7,296.5c0,13.1,9.2,18.9,22.1,18.9c9,0,13.6-2.8,15.7-4.1v-17.8h-16.1v7h7.7v5.9c-1.8,0.5-4,0.8-6.6,0.8
	c-8.2,0-13.2-3.8-13.2-11.1c0-7.2,5.8-10.9,13.5-10.9c6.2,0,9.3,1.9,11.5,3.4l3.4-7.1c-2.5-1.7-6.5-4.3-15.3-4.3
	C206,277.2,195.7,283.6,195.7,296.5z M286.9,314.8l-9.4-13c5.3-2,8-5.8,8-11.3c0-8.3-5.6-12.8-17.7-12.8h-17v37h9.3v-11.6h7.7
	l7.6,11.6H286.9z M275.9,290.8c0,3.2-2.7,5-8.7,5h-7v-10.1h7.3C273.6,285.7,275.9,287.4,275.9,290.8z M325.5,277.8h-10.2l-16.3,37
	h10l3.6-8.9h15.4l3.6,8.9h10.2L325.5,277.8z M325.5,299.5H315l5.2-12.9h0.1L325.5,299.5z M394,277.8h-9.4v22.7h-0.1l-18.9-22.7h-9.4
	v37h9.3v-22.7h0.1l18.9,22.7h9.4V277.8z M447.8,277.8h-39.2v7.9h15v29h9.4v-29h14.9V277.8z M518,277.8h-29.6v37h9.3v-11.6h18.4v-8
	h-18.4v-9.4H518V277.8z M574.3,296.3c0-11.6-7.9-19.1-21.6-19.1c-13.6,0-21.6,7.6-21.6,19.1s7.9,19.1,21.6,19.1
	C566.3,315.4,574.3,307.9,574.3,296.3z M564.7,296.2c0,6.7-4.6,11-11.9,11c-7.5,0-12.1-4.3-12.1-11c0-6.6,4.6-10.9,12-10.9
	S564.7,289.5,564.7,296.2z M626.6,314.8l-9.4-13c5.3-2,8-5.8,8-11.3c0-8.3-5.6-12.8-17.7-12.8h-17v37h9.3v-11.6h7.7l7.6,11.6H626.6z
	 M615.5,290.8c0,3.2-2.7,5-8.7,5h-7v-10.1h7.3C613.2,285.7,615.5,287.4,615.5,290.8z M233.7,341.4h-39.2v7.9h15v29h9.4v-29h14.9
	V341.4z M286.2,341.4h-9.4v14.2h-19.1v-14.2h-9.3v37h9.3v-14.8h19.1v14.8h9.4V341.4z M333.5,341.4h-29.5v37h30v-8h-20.6v-7.2h18.2
	v-7.3h-18.2v-6.6h20.1V341.4z M433.5,341.4h-9.9l-6,24.5h-0.1l-9.2-24.5h-9.5l-9.2,24.5h-0.1l-6-24.5h-9.9l10.3,37h9.6l10-25.6h0.1
	l9.9,25.6h9.6L433.5,341.4z M477.8,341.4h-29.5v37h30v-8h-20.6v-7.2h18.2v-7.3h-18.2v-6.6h20.1V341.4z M530,368c0-4.7-3.4-7.8-8-8.7
	v-0.1c3.7-1,6.4-3.9,6.4-8.3c0-5.8-4.3-9.5-15.1-9.5h-18.4v37h18.6C525.3,378.4,530,374.1,530,368z M519.1,352.3
	c0,2.4-1.9,3.9-7,3.9h-8v-7.5h8C517.4,348.7,519.1,350,519.1,352.3z M520.6,366.8c0,2.5-1.9,3.9-7.8,3.9h-8.7v-7.9h8.5
	C518.6,362.8,520.6,364.3,520.6,366.8z"/>
</svg>
